<svg xmlns="http://www.w3.org/2000/svg" width="256" height="256"><path fill="#1976D2" fill-opacity=".016" fill-rule="evenodd" d="M0 128.004v128.004l128.25-.254 128.25-.254.254-127.75L257.008 0H0v128.004m.485.496c0 70.4.119 99.053.265 63.672.146-35.38.146-92.98 0-128C.604 29.153.485 58.1.485 128.5"/><path fill="#1976D2" fill-opacity=".279" fill-rule="evenodd" d="M106.5 1.596C58.96 10.017 20.072 44.06 5.576 89.948c-7.425 23.506-7.425 52.598 0 76.104 12.605 39.902 44.425 71.802 84.043 84.256 24.035 7.554 52.727 7.554 76.762 0 40.716-12.799 73.064-46.083 85.001-87.46 1.373-4.759 2.808-11.407 3.189-14.773.381-3.366 1.083-6.361 1.561-6.656.477-.296.868-6.837.868-14.537 0-7.7-.356-13.78-.79-13.512-.435.269-1.362-3.141-2.06-7.578-7.268-46.19-43.555-86.913-89.729-100.696-16.976-5.068-40.903-6.514-57.921-3.5M92.439 52.134C84.716 59.55 80.971 66.68 78.325 79c-1.586 7.389-1.825 13.49-1.825 46.666 0 20.991.287 38.454.639 38.805.351.352 8.001.727 17 .834l16.361.195v-26l-5.308-.304-5.307-.305.711-45.792c.535-34.511.423-45.97-.458-46.514-.701-.433-3.781 1.786-7.699 5.549m31.061 50.738-7 .628-.26 52c-.143 28.6-.034 52.591.243 53.313.683 1.783 11.213-3.844 16.131-8.621 7.163-6.957 7.707-9.464 8.501-39.192.39-14.575.748-27.963.797-29.75L142 128h24c18.618 0 24-.282 24-1.258 0-2.243-8.03-13.621-11.817-16.744-7.197-5.937-12.812-7.294-31.183-7.537-9.075-.119-19.65.065-23.5.411M.397 128c0 7.975.156 11.238.346 7.25.189-3.988.189-10.513 0-14.5-.19-3.987-.346-.725-.346 7.25M168 140l-21.5.5-.281 12.25-.281 12.25h3.443c9.959 0 24.65-4.498 31.328-9.592 3.555-2.711 11.291-12.401 11.291-14.142 0-1.71-1.501-1.789-24-1.266"/><path fill="#1976D2" fill-opacity=".519" fill-rule="evenodd" d="M111.5 1.075C60.235 8.122 17.93 45.277 4.529 95.027c-9.382 34.831-3.257 72.616 16.728 103.192 3.713 5.681 10.174 13.404 16.654 19.91 18.833 18.904 39.257 29.883 66.089 35.527 11.734 2.469 36.266 2.469 48 0 25.693-5.404 46.372-16.222 64.462-33.723 20.528-19.859 34.282-46.286 37.698-72.433.575-4.4 1.449-8.781 1.943-9.736 1.147-2.221 1.183-21.059.038-20.351-.472.292-1.145-2.494-1.494-6.191-.88-9.308-4.972-23.945-9.724-34.781-11.566-26.371-34.279-50.127-60.423-63.198-7.912-3.955-22.059-8.709-32-10.753-9.668-1.988-31.378-2.737-41-1.415M91.731 52.256c-10.649 10.692-13.968 20.221-15.802 45.37-1.239 16.996-.302 65.131 1.307 67.124.733.908 5.489 1.25 17.386 1.25H111v-27h-10.192l.204-45.25c.112-24.888.156-45.812.096-46.5-.232-2.682-3.407-.987-9.377 5.006m28.782 50.444c-2.193.247-4.323.978-4.735 1.624-.411.647-.754 24.478-.763 52.957-.013 44.354.193 51.862 1.437 52.339 1.916.735 10.652-4.079 16.092-8.868 2.946-2.593 5.043-5.65 6.539-9.534 2.037-5.288 2.239-7.894 2.689-34.618l.487-28.899 23.435.563c20.55.494 23.508.374 24.028-.981.933-2.431-2.674-8.25-9.211-14.862-8.897-8.997-11.505-9.719-36.011-9.967-11-.112-21.794-.001-23.987.246M.37 128c0 5.775.165 8.137.367 5.25.202-2.887.202-7.612 0-10.5S.37 122.225.37 128m146.065 12.308c-.276.72-.374 6.682-.218 13.25l.283 11.942 5-.325c6.69-.434 16.822-2.782 22.121-5.126 7.819-3.458 19.373-16.018 18.008-19.574-.791-2.06-44.406-2.22-45.194-.167"/><path fill="#1976D2" fill-opacity=".931" fill-rule="evenodd" d="M116.77 1.055C66.885 5.488 23.747 39.204 7.543 86.424-3.659 119.066-.996 155.577 14.842 186.5 36.529 228.842 79.94 255.196 128 255.196c61.62 0 113.33-42.747 125.088-103.405 1.052-5.424 1.912-12.546 1.912-15.826 0-3.31.445-5.965 1-5.965.55 0 .993-1.463.985-3.25-.012-2.466-.249-2.888-.985-1.75-.683 1.058-.974-.333-.985-4.715-.019-7.948-3.069-23.696-6.558-33.861-12.18-35.493-40.412-64.509-75.683-77.785-10.075-3.792-22.606-6.527-34.883-7.614C131.626.471 126.275.076 126 .148c-.275.072-4.428.48-9.23.907M91.963 51.617C84.832 58.418 79.891 67.741 77.449 79c-1.9 8.756-3.116 62.394-1.758 77.5l.809 9 17.191.273 17.191.274.309-12.274c.17-6.75.148-12.835-.048-13.523-.225-.787-2.222-1.25-5.394-1.25h-5.038l.395-46.232c.456-53.501 1.042-50.866-9.143-41.151M126 101.862c-4.675.375-9.062 1.036-9.75 1.469-1.953 1.229-1.811 106.24.144 106.99 2.115.811 13.206-6.185 18.101-11.419 2.386-2.551 4.896-6.385 5.579-8.52.801-2.508 1.45-14.148 1.833-32.882l.593-29 23.729.387c21.108.345 23.797.21 24.346-1.221.878-2.289-7.97-15.215-12.82-18.729-7.619-5.519-13.834-7.1-29.255-7.445-7.7-.172-17.825-.005-22.5.37M.232 128c0 1.925.206 2.713.457 1.75.252-.963.252-2.537 0-3.5-.251-.963-.457-.175-.457 1.75M146.2 140.2c-1.426 1.426-1.661 22.524-.274 24.714.758 1.198 2.24 1.226 9.703.182 10.754-1.505 17.727-3.869 23.865-8.092 5.375-3.698 13.679-14.391 12.851-16.548-.466-1.214-4.247-1.456-22.752-1.456-15.928 0-22.532.339-23.393 1.2"/></svg>